<svg xmlns="http://www.w3.org/2000/svg" viewBox="0 0 64 64">
  <rect x="4" y="4" width="56" height="56" rx="14" fill="#ff7a00" />
  <path
    d="M17 27h29v4c0 8.3-6.7 15-15 15h-9c-2.2 0-4-1.8-4-4V31h-1.5c-2 0-3.5-1.5-3.5-3.5S14.5 24 16.5 24H17v3Z"
    fill="#172026"
  />
  <path
    d="M19 22c4-4 8.6-6 14-6s10 2 14 6v3H19v-3Z"
    fill="#172026"
  />
  <rect x="29" y="11" width="10" height="6" rx="3" fill="#172026" />
  <path
    d="M45 30h2.5c2 0 3.5 1.5 3.5 3.5S49.5 37 47.5 37H45"
    fill="none"
    stroke="#172026"
    stroke-linecap="round"
    stroke-width="6"
  />
  <circle cx="43" cy="43" r="12" fill="#43b02a" />
  <circle cx="43" cy="43" r="8" fill="none" stroke="#ffffff" stroke-width="3" />
  <path
    d="M43 37v7l5 3"
    fill="none"
    stroke="#ffffff"
    stroke-linecap="round"
    stroke-linejoin="round"
    stroke-width="3"
  />
  <path
    d="M30.5 31c0-3.2 2.1-5.3 5.2-5.3 2.9 0 5 1.8 5 4.5 0 2-1 3.1-2.8 4.3-1.4.9-2 1.7-2 3.5"
    fill="none"
    stroke="#ffffff"
    stroke-linecap="round"
    stroke-width="4"
  />
  <circle cx="36" cy="42" r="2.5" fill="#ffffff" />
</svg>
